# xmcd
#
# Track frame offsets: 
#        150
#        18172
#        36942
#        62052
#        83037
#        105720
#        130635
#        153900
#        185185
#        203862
#        223970
#        250480
#        274662
#        301072
#        320140
#
# Disc length: 4352 seconds
#
# Revision: 2
# Processed by: cddbd v1.5.2PL0 Copyright (c) Steve Scherf et al.
# Submitted via: ExactAudioCopy v0.99pb5
#
DISCID=d710fe0f
DTITLE=Rick James - Urban Rapsody
DYEAR=1900
DGENRE=
TTITLE0=Urban Rapsody
TTITLE1=West Coast Thing
TTITLE2=Somebody's Watching You
TTITLE3=Back In You Again
TTITLE4=Turn It Out
TTITLE5=Good Ol Days
TTITLE6=Player's Way
TTITLE7=Never Say You Love Me
TTITLE8=It's Time
TTITLE9=So Soft So Wet
TTITLE10=Bring On the Love
TTITLE11=Mama's Eyes
TTITLE12=Soul Sista
TTITLE13=Favorite Flava
TTITLE14=Urban Rapsody (reprise)
EXTD=
EXTT0=
EXTT1=
EXTT2=
EXTT3=
EXTT4=
EXTT5=
EXTT6=
EXTT7=
EXTT8=
EXTT9=
EXTT10=
EXTT11=
EXTT12=
EXTT13=
EXTT14=
PLAYORDER=
